PathFileType	4	(X/Y/Z)	Kaydara	
DataRate	CameraRate	NumFrames	NumMarkers	Units	OrigDataRate	OrigDataStartFrame	OrigNumFrames	
60.00	60.00	4	74	mm	60.00	577	200	
Frame#	Time	Z_lasi			Z_rasi			Z_rpsi			Z_lpsi			Z_fneck			Z_bneck			Z_fhead			Z_rhead			Z_lhead			Z_rshld			Z_relbtop			Z_relbext			Z_relblow			Z_rwrext			Z_rwrtop			Z_rwrlow			Z_lshld			Z_lelbext			Z_lelblow			Z_lelbtop			Z_lwrext			Z_lwrtop			Z_lwrlow			Z_rtopleg			Z_ltopleg			Z_rkneefr			Z_rkneebk			Z_rkneeis			Z_lkneefr			Z_lknssbk			Z_lkneeis			Z_rankfr			Z_rankis			Z_rankbk			Z_lankfr			Z_lankbk			Z_lankis			A_lasi			A_rasi			A_rpsi			A_lpsi			A_fneck			A_bneck			A_fhead			A_rhead			A_lhead			A_rshld			A_relbtop			A_relbext			A_relblow			A_rwrext			A_rwrtop			A_rwrlow			A_lshld			A_lelbext			A_lelblow			A_lelbtop			A_lwrext			A_lwrtop			A_lwrlow			A_rtopleg			A_ltopleg			A_rkneefr			A_rkneebk			A_rkneeis			A_lkneefr			A_lknssbk			A_lkneeis			A_rankfr			A_rankis			A_rankbk			A_lankfr			A_lankbk			A_lankis			
		X1	Y1	Z1	X2	Y2	Z2	X3	Y3	Z3	X4	Y4	Z4	X5	Y5	Z5	X6	Y6	Z6	X7	Y7	Z7	X8	Y8	Z8	X9	Y9	Z9	X10	Y10	Z10	X11	Y11	Z11	X12	Y12	Z12	X13	Y13	Z13	X14	Y14	Z14	X15	Y15	Z15	X16	Y16	Z16	X17	Y17	Z17	X18	Y18	Z18	X19	Y19	Z19	X20	Y20	Z20	X21	Y21	Z21	X22	Y22	Z22	X23	Y23	Z23	X24	Y24	Z24	X25	Y25	Z25	X26	Y26	Z26	X27	Y27	Z27	X28	Y28	Z28	X29	Y29	Z29	X30	Y30	Z30	X31	Y31	Z31	X32	Y32	Z32	X33	Y33	Z33	X34	Y34	Z34	X35	Y35	Z35	X36	Y36	Z36	X37	Y37	Z37	X38	Y38	Z38	X39	Y39	Z39	X40	Y40	Z40	X41	Y41	Z41	X42	Y42	Z42	X43	Y43	Z43	X44	Y44	Z44	X45	Y45	Z45	X46	Y46	Z46	X47	Y47	Z47	X48	Y48	Z48	X49	Y49	Z49	X50	Y50	Z50	X51	Y51	Z51	X52	Y52	Z52	X53	Y53	Z53	X54	Y54	Z54	X55	Y55	Z55	X56	Y56	Z56	X57	Y57	Z57	X58	Y58	Z58	X59	Y59	Z59	X60	Y60	Z60	X61	Y61	Z61	X62	Y62	Z62	X63	Y63	Z63	X64	Y64	Z64	X65	Y65	Z65	X66	Y66	Z66	X67	Y67	Z67	X68	Y68	Z68	X69	Y69	Z69	X70	Y70	Z70	X71	Y71	Z71	X72	Y72	Z72	X73	Y73	Z73	X74	Y74	Z74	

76	9.600	-252.78587	1084.27254	650.16663	-292.20018	1092.47742	447.15256	-123.09372	1112.48703	374.38641	-65.14713	1098.16734	611.56132	-257.83672	1439.08264	524.66194	-149.09823	1516.46027	531.57238	-352.39414	1628.45490	455.11890	-185.45664	1646.09055	442.89207	-239.33702	1652.23755	580.57068	-195.74238	1432.73209	322.49165	-136.97955	1114.57184	241.36459	-125.54644	1095.57434	298.64540	-210.51260	1124.87854	262.59851	-238.70455	888.97530	218.97676	-277.55400	904.19685	237.21514	-265.23932	898.91975	279.30143	-150.93748	1445.96466	716.67992	-102.04102	1129.99390	723.84384	-166.98236	1149.45427	782.80899	-98.87341	1149.39903	792.66396	-231.21151	893.76930	763.48091	-222.75040	886.55518	809.69650	-176.42494	882.02179	804.75334	-177.99736	924.98367	325.82623	-169.83021	896.14220	690.87524	-257.74199	420.43835	386.47663	-187.39599	449.37679	336.37775	-195.56652	432.30511	461.23581	-214.03170	449.01875	661.65077	-107.60717	474.20563	647.51953	-203.83156	443.71021	568.92357	-206.52834	179.04205	371.20945	-182.89444	176.54463	433.37643	-129.70686	173.61921	364.05720	-151.91000	165.37062	666.14983	-94.40112	165.95089	608.90709	-172.91042	173.17848	595.97443	-993.44765	1037.66586	464.32697	-982.29500	1040.34027	624.42173	-1141.07162	1040.97252	644.61266	-1115.58418	1046.58035	461.00468	-1016.99242	1379.74808	568.21812	-1158.66043	1411.25809	557.93823	-970.93338	1596.29288	573.89969	-1114.56123	1554.11514	659.13300	-1115.38254	1552.91656	495.84660	-1100.23071	1372.69119	738.02086	-1076.06316	1079.38293	786.54564	-1138.51074	1070.23178	770.66216	-1077.98325	1067.11571	729.41261	-1034.80904	835.56442	811.77376	-994.80324	849.52965	794.65118	-1010.44662	847.80083	757.15454	-1049.84108	1375.28427	393.05458	-1100.65079	1062.01210	371.13819	-1031.63040	1069.16687	388.87318	-1060.06447	1066.85425	342.60441	-1001.55792	843.92616	389.41704	-1010.60287	842.32994	347.46407	-966.34277	854.43695	350.04665	-1084.90257	877.44476	724.54910	-1049.28986	890.83336	387.45506	-1034.61578	453.33698	634.04213	-1142.16232	485.74696	680.94185	-1124.10866	485.31246	562.48947	-1021.59195	465.70961	505.75214	-1105.11993	479.27738	408.59531	-1128.68561	479.57863	532.16904	-1100.45692	165.99640	658.70392	-1135.00084	162.06282	593.74065	-1181.03416	152.59927	663.96423	-1069.49783	166.70280	456.03710	-1130.29785	166.80721	419.89441	-1129.91425	173.10862	509.27170 
77	9.617	-251.61554	1084.40674	648.76984	-291.36713	1092.48558	445.64713	-122.24901	1112.23000	372.74498	-63.99006	1098.02147	609.87823	-258.05801	1439.32297	523.16872	-149.00347	1516.17340	529.83532	-351.86512	1628.83133	453.92124	-184.88041	1645.87677	441.30741	-238.35957	1652.24869	579.07185	-196.57417	1432.60651	320.95608	-137.51018	1114.50012	239.83017	-126.02098	1095.42496	296.99276	-211.00420	1124.61143	261.08906	-238.89111	888.71140	217.73052	-277.70548	903.80440	236.07279	-265.24714	898.52463	278.07003	-151.74205	1445.83679	715.24475	-102.43981	1129.96445	723.01949	-167.42254	1149.42276	781.96091	-99.15674	1149.59267	791.71761	-230.42681	893.33084	764.17953	-221.81637	886.28220	810.29793	-175.31359	882.04666	805.14832	-177.65245	924.78783	324.49684	-169.17713	896.19034	689.56299	-258.09555	420.28099	385.63560	-187.81801	449.25705	335.63210	-195.34243	432.18025	460.07050	-214.10477	449.17194	661.10764	-107.53340	474.17809	646.53725	-203.96465	443.69595	568.36803	-206.64511	178.94241	370.93513	-182.92957	176.54142	433.00922	-129.60693	173.65639	363.51860	-151.90564	165.40482	665.90866	-95.05305	165.62979	609.42772	-173.05155	173.48003	596.40942	-994.38400	1037.73438	464.53285	-983.07640	1040.34241	624.53285	-1141.72363	1041.12061	644.88014	-1116.37344	1046.71616	460.90515	-1017.15851	1379.52072	568.53539	-1158.79189	1411.30188	558.38287	-970.74425	1595.96970	574.58904	-1114.23378	1553.92654	659.81285	-1115.35118	1552.94159	496.56315	-1100.00282	1373.17551	738.14079	-1074.90135	1079.84512	786.56029	-1137.61185	1070.61378	771.51962	-1077.26418	1067.62451	729.73930	-1033.84933	835.86624	811.65947	-994.04861	849.84161	794.15916	-1010.02602	848.06343	756.75194	-1049.53186	1375.62622	393.55770	-1100.42625	1062.32948	371.99902	-1031.49292	1069.29977	389.96246	-1059.72939	1067.12082	343.64731	-1002.28073	843.72070	390.61874	-1011.50826	842.28073	348.73077	-967.17987	854.22272	351.27922	-1085.27016	877.38754	724.61205	-1050.08896	891.01906	387.61829	-1034.52232	453.39909	634.02790	-1142.12158	485.73620	680.93887	-1124.05556	485.31227	562.50317	-1021.58524	465.84606	505.88036	-1105.19386	479.32789	408.82286	-1128.67088	479.57054	532.34810	-1100.38940	165.97996	658.69278	-1134.98611	162.06127	593.73688	-1181.00708	152.62583	663.96950	-1069.50607	166.74314	456.09829	-1130.35072	166.83546	419.95552	-1129.87206	173.10778	509.32487 
78	9.633	-250.53436	1084.38934	647.39662	-290.70967	1092.31590	444.20303	-121.22611	1112.19849	370.55992	-62.95756	1097.94128	608.11188	-258.12551	1439.42139	521.57848	-148.96791	1515.81955	528.26714	-351.22147	1629.29626	452.40051	-184.14707	1645.84396	439.98810	-237.69447	1652.16827	577.63966	-197.34100	1432.52060	319.32615	-138.18448	1114.38545	238.08006	-126.45228	1095.39520	295.33180	-211.67234	1124.49829	259.68409	-239.23161	888.42865	216.42506	-278.09601	903.48282	234.85512	-265.45443	898.30635	276.95654	-152.31763	1445.84427	713.61206	-102.84677	1129.89677	721.93130	-167.90573	1149.39499	781.04301	-99.60501	1149.68254	790.66551	-229.96027	892.77122	764.80446	-221.09249	885.93582	810.88608	-174.37040	882.03728	805.56953	-177.31403	924.52362	322.98264	-168.14383	896.26854	688.00705	-258.39785	420.17178	384.89918	-188.22409	449.03931	334.97253	-195.39539	432.07043	459.01184	-214.10465	449.29989	660.59303	-107.64522	474.14719	645.98389	-204.09401	443.67691	567.84966	-206.71940	178.80863	370.61726	-183.01298	176.56639	432.66521	-129.71026	173.59854	363.24337	-151.83732	165.41004	665.73151	-95.09677	165.61203	609.18190	-173.14875	173.43834	596.22841	-995.09407	1037.84470	464.62753	-983.72536	1040.37537	624.62894	-1142.25044	1041.21262	645.10605	-1117.07268	1046.87599	461.37695	-1017.59163	1379.34998	568.91273	-1158.96004	1411.39557	558.84346	-970.34767	1595.79926	575.14565	-1114.09874	1553.78510	660.49866	-1115.20264	1553.08304	497.21111	-1099.80583	1373.57971	738.29361	-1073.97865	1080.12558	786.63368	-1136.70341	1071.05370	772.15622	-1077.13943	1068.08609	729.42474	-1032.91977	836.12404	811.28052	-993.42987	850.06416	793.45291	-1009.69742	848.25729	756.17058	-1049.18793	1375.85464	394.03828	-1100.28946	1062.47147	372.62856	-1031.47614	1069.30740	390.99796	-1059.43283	1067.18132	344.49413	-1003.00896	843.70148	391.67118	-1012.11967	842.19666	349.65816	-967.78099	853.89565	352.38934	-1085.64629	877.38174	724.70879	-1050.68184	891.06171	387.80678	-1034.37218	453.51799	634.08119	-1141.97525	485.70526	680.94856	-1123.84506	485.26363	562.50450	-1021.60500	465.97084	506.07471	-1105.22995	479.35318	409.08455	-1128.58620	479.54830	532.59186	-1100.34065	165.97708	658.69453	-1134.90463	162.05498	593.70438	-1180.97092	152.65039	663.95645	-1069.49257	166.74562	456.17290	-1130.53116	166.81520	420.12081	-1129.82071	173.09582	509.41879 
79	9.650	-249.59244	1084.28017	645.88959	-290.19356	1092.03583	442.68555	-120.60192	1112.10289	368.52467	-62.18706	1097.96516	606.28323	-258.10450	1439.39102	519.60484	-149.01184	1515.60898	526.69266	-350.57831	1629.78119	450.67551	-183.41801	1645.99655	438.72887	-237.29288	1651.99158	576.32442	-197.91479	1432.40234	317.65070	-138.98511	1114.20433	236.33276	-126.96427	1095.29327	293.53445	-212.42819	1124.25766	258.34166	-239.86053	888.15933	215.21399	-278.54500	903.17215	233.68702	-266.04439	897.95998	275.67398	-152.83155	1445.68909	711.94740	-103.48583	1129.75235	720.81741	-168.48682	1149.45168	779.85519	-100.29248	1149.71062	789.45770	-229.25756	892.07191	765.12772	-220.54224	885.63255	811.34499	-173.96568	881.88126	805.73792	-177.01788	924.33952	321.53618	-167.15042	896.30943	686.53625	-258.67058	420.14648	384.13563	-188.57225	448.80367	334.26800	-195.72271	432.07989	458.33637	-213.83629	449.35886	660.05531	-107.54373	474.09763	645.10406	-204.15195	443.66051	567.23320	-206.79218	178.67416	370.24975	-183.13227	176.62413	432.39838	-129.76621	173.54198	362.98786	-151.73455	165.51176	665.55061	-95.10903	165.57968	608.90408	-173.22048	173.39758	595.92907	-995.90881	1037.91603	464.80640	-984.27567	1040.39063	624.76616	-1142.75597	1041.23260	645.41817	-1117.70744	1046.92734	461.60545	-1018.05511	1379.27933	569.19647	-1159.18381	1411.53961	559.19697	-969.90089	1595.52216	575.82237	-1113.78952	1553.64929	661.15944	-1115.00763	1553.24661	497.85267	-1099.71535	1373.91937	738.41057	-1072.92908	1080.41550	786.48308	-1135.90714	1071.35094	772.70569	-1076.97456	1068.41148	729.22447	-1032.15622	836.28609	810.73708	-992.77527	850.08934	792.40669	-1009.42726	848.42270	755.25429	-1048.95668	1376.00250	394.44241	-1100.08698	1062.56180	373.06854	-1031.26846	1069.28596	391.63887	-1059.15329	1067.15919	345.06081	-1003.79494	843.58353	391.92871	-1012.63069	842.00325	350.41439	-968.15674	853.62961	353.21201	-1085.97923	877.30927	724.86954	-1051.30707	891.11313	388.08285	-1034.15565	453.53573	634.22241	-1141.82396	485.66719	681.00471	-1123.61916	485.23041	562.59811	-1021.60828	466.03073	506.19801	-1105.36469	479.35631	409.40041	-1128.47275	479.49207	532.96093	-1100.26703	165.95169	658.73077	-1134.79065	162.05788	593.69492	-1180.96573	152.65756	663.98125	-1069.48303	166.76477	456.23966	-1130.46600	166.92038	420.24036	-1129.78378	173.07001	509.54666 
